<svg width="1200" height="630" viewBox="0 0 1200 630" fill="none" xmlns="http://www.w3.org/2000/svg">
  <rect width="1200" height="630" fill="#E5D2BA"/>
  <rect x="46" y="42" width="1108" height="546" rx="44" fill="#FFF7EB" fill-opacity="0.58"/>
  <circle cx="1020" cy="126" r="144" fill="#E54715" fill-opacity="0.16"/>
  <circle cx="124" cy="516" r="160" fill="#622B86" fill-opacity="0.13"/>
  <rect x="88" y="86" width="1024" height="458" rx="34" fill="#FFFDF8"/>
  <path d="M170 181C170 153.938 191.938 132 219 132H277C304.062 132 326 153.938 326 181V239C326 266.062 304.062 288 277 288H219C191.938 288 170 266.062 170 239V181Z" fill="#491474"/>
  <path d="M214.17 225.696C204.85 225.696 197.3 218.146 197.3 208.826C197.3 199.506 204.85 191.956 214.17 191.956H233.96C238.47 191.956 242.13 195.616 242.13 200.126C242.13 204.636 238.47 208.296 233.96 208.296H214.17C213.89 208.296 213.64 208.546 213.64 208.826C213.64 209.106 213.89 209.356 214.17 209.356H251.83C261.15 209.356 268.7 216.906 268.7 226.226C268.7 235.546 261.15 243.096 251.83 243.096H232.04C227.53 243.096 223.87 239.436 223.87 234.926C223.87 230.416 227.53 226.756 232.04 226.756H251.83C252.11 226.756 252.36 226.506 252.36 226.226C252.36 225.946 252.11 225.696 251.83 225.696H214.17Z" fill="#E54715"/>
  <path d="M250.5 208.826C250.5 199.506 258.05 191.956 267.37 191.956C276.69 191.956 284.24 199.506 284.24 208.826C284.24 218.146 276.69 225.696 267.37 225.696H247.58C243.07 225.696 239.41 222.036 239.41 217.526C239.41 213.016 243.07 209.356 247.58 209.356H267.37C267.65 209.356 267.9 209.106 267.9 208.826C267.9 208.546 267.65 208.296 267.37 208.296H229.71C220.39 208.296 212.84 200.746 212.84 191.426C212.84 182.106 220.39 174.556 229.71 174.556H249.5C254.01 174.556 257.67 178.216 257.67 182.726C257.67 187.236 254.01 190.896 249.5 190.896H229.71C229.43 190.896 229.18 191.146 229.18 191.426C229.18 191.706 229.43 191.956 229.71 191.956H267.37C267.48 191.956 267.59 191.956 267.7 191.959C258.13 192.135 250.5 199.793 250.5 208.826Z" fill="#E54715"/>
  <text x="370" y="190" fill="#491474" font-family="Inter, Arial, sans-serif" font-size="76" font-weight="800">Boorise</text>
  <text x="370" y="253" fill="#622B86" font-family="Inter, Arial, sans-serif" font-size="36" font-weight="700">ERP pour artisans du batiment</text>
  <text x="170" y="380" fill="#231827" font-family="Inter, Arial, sans-serif" font-size="44" font-weight="800">Clients, materiaux, devis et factures</text>
  <text x="170" y="437" fill="#6D5E6F" font-family="Inter, Arial, sans-serif" font-size="28" font-weight="500">Calculs de pertes, lots, marges et achats reels pour chiffrer proprement.</text>
  <rect x="170" y="478" width="238" height="48" rx="24" fill="#E54715"/>
  <text x="202" y="511" fill="white" font-family="Inter, Arial, sans-serif" font-size="22" font-weight="800">boorise.fr</text>
</svg>
